<svg width="1512" height="982" viewBox="0 0 1512 982" fill="none" xmlns="http://www.w3.org/2000/svg">
<rect width="1512" height="982" fill="white"/>
<path d="M451.888 136.818V195H438.706L417.683 164.432H417.342V195H401.547V136.818H414.956L435.638 167.273H436.092V136.818H451.888ZM480.609 195.795C475.875 195.795 471.821 194.858 468.45 192.983C465.079 191.089 462.494 188.456 460.695 185.085C458.895 181.695 457.996 177.765 457.996 173.295C457.996 168.826 458.895 164.905 460.695 161.534C462.494 158.144 465.079 155.511 468.45 153.636C471.821 151.742 475.875 150.795 480.609 150.795C485.344 150.795 489.397 151.742 492.768 153.636C496.14 155.511 498.725 158.144 500.524 161.534C502.323 164.905 503.223 168.826 503.223 173.295C503.223 177.765 502.323 181.695 500.524 185.085C498.725 188.456 496.14 191.089 492.768 192.983C489.397 194.858 485.344 195.795 480.609 195.795ZM480.723 184.205C482.049 184.205 483.195 183.759 484.161 182.869C485.126 181.979 485.875 180.71 486.405 179.062C486.935 177.415 487.2 175.455 487.2 173.182C487.2 170.89 486.935 168.93 486.405 167.301C485.875 165.653 485.126 164.384 484.161 163.494C483.195 162.604 482.049 162.159 480.723 162.159C479.321 162.159 478.119 162.604 477.115 163.494C476.111 164.384 475.344 165.653 474.814 167.301C474.284 168.93 474.018 170.89 474.018 173.182C474.018 175.455 474.284 177.415 474.814 179.062C475.344 180.71 476.111 181.979 477.115 182.869C478.119 183.759 479.321 184.205 480.723 184.205ZM509.587 195V151.364H524.814V159.659H525.268C526.064 156.591 527.323 154.347 529.047 152.926C530.789 151.506 532.825 150.795 535.155 150.795C535.837 150.795 536.509 150.852 537.172 150.966C537.854 151.061 538.507 151.203 539.132 151.392V164.773C538.356 164.508 537.399 164.309 536.263 164.176C535.126 164.044 534.151 163.977 533.337 163.977C531.803 163.977 530.42 164.328 529.189 165.028C527.977 165.71 527.02 166.676 526.32 167.926C525.619 169.157 525.268 170.606 525.268 172.273V195H509.587ZM544.274 195V151.364H559.161V159.659H559.615C560.524 156.932 562.077 154.773 564.274 153.182C566.471 151.591 569.085 150.795 572.115 150.795C575.183 150.795 577.825 151.61 580.041 153.239C582.257 154.848 583.592 156.989 584.047 159.659H584.501C585.24 156.989 586.812 154.848 589.217 153.239C591.623 151.61 594.445 150.795 597.683 150.795C601.869 150.795 605.259 152.14 607.854 154.83C610.467 157.519 611.774 161.098 611.774 165.568V195H596.092V169.545C596.092 167.633 595.609 166.136 594.643 165.057C593.678 163.958 592.38 163.409 590.751 163.409C589.142 163.409 587.863 163.958 586.916 165.057C585.988 166.136 585.524 167.633 585.524 169.545V195H570.524V169.545C570.524 167.633 570.041 166.136 569.075 165.057C568.109 163.958 566.812 163.409 565.183 163.409C564.104 163.409 563.176 163.655 562.399 164.148C561.623 164.64 561.017 165.35 560.581 166.278C560.164 167.187 559.956 168.277 559.956 169.545V195H544.274ZM631.668 195.682C628.884 195.682 626.421 195.227 624.281 194.318C622.16 193.39 620.493 191.989 619.281 190.114C618.069 188.239 617.463 185.852 617.463 182.955C617.463 180.568 617.87 178.532 618.685 176.847C619.499 175.142 620.635 173.75 622.094 172.67C623.552 171.591 625.247 170.767 627.179 170.199C629.13 169.631 631.232 169.261 633.486 169.091C635.929 168.902 637.889 168.674 639.366 168.409C640.863 168.125 641.942 167.737 642.605 167.244C643.268 166.733 643.599 166.061 643.599 165.227V165.114C643.599 163.977 643.164 163.106 642.293 162.5C641.421 161.894 640.304 161.591 638.94 161.591C637.444 161.591 636.223 161.922 635.276 162.585C634.348 163.229 633.789 164.223 633.599 165.568H619.168C619.357 162.917 620.2 160.473 621.696 158.239C623.211 155.985 625.418 154.186 628.315 152.841C631.213 151.477 634.83 150.795 639.168 150.795C642.293 150.795 645.096 151.165 647.577 151.903C650.058 152.623 652.17 153.636 653.912 154.943C655.654 156.231 656.98 157.746 657.889 159.489C658.817 161.212 659.281 163.087 659.281 165.114V195H644.622V188.864H644.281C643.41 190.492 642.349 191.809 641.099 192.812C639.868 193.816 638.457 194.545 636.866 195C635.295 195.455 633.562 195.682 631.668 195.682ZM636.781 185.795C637.974 185.795 639.092 185.549 640.134 185.057C641.194 184.564 642.056 183.854 642.719 182.926C643.382 181.998 643.713 180.871 643.713 179.545V175.909C643.296 176.08 642.851 176.241 642.378 176.392C641.923 176.544 641.431 176.686 640.901 176.818C640.389 176.951 639.84 177.074 639.253 177.188C638.685 177.301 638.088 177.405 637.463 177.5C636.251 177.689 635.257 178.002 634.48 178.438C633.723 178.854 633.154 179.375 632.776 180C632.416 180.606 632.236 181.288 632.236 182.045C632.236 183.258 632.662 184.186 633.514 184.83C634.366 185.473 635.455 185.795 636.781 185.795ZM682.456 136.818V195H666.774V136.818H682.456ZM712.605 195H690.219V136.818H712.378C718.363 136.818 723.533 137.983 727.889 140.312C732.264 142.623 735.635 145.956 738.003 150.312C740.389 154.65 741.582 159.848 741.582 165.909C741.582 171.97 740.399 177.178 738.031 181.534C735.664 185.871 732.312 189.205 727.974 191.534C723.637 193.845 718.514 195 712.605 195ZM706.014 181.591H712.037C714.916 181.591 717.368 181.127 719.395 180.199C721.44 179.271 722.993 177.67 724.054 175.398C725.134 173.125 725.673 169.962 725.673 165.909C725.673 161.856 725.124 158.693 724.026 156.42C722.946 154.148 721.355 152.547 719.253 151.619C717.17 150.691 714.613 150.227 711.582 150.227H706.014V181.591ZM770.027 195.795C765.368 195.795 761.353 194.905 757.982 193.125C754.629 191.326 752.044 188.75 750.226 185.398C748.427 182.027 747.527 177.992 747.527 173.295C747.527 168.788 748.436 164.848 750.254 161.477C752.072 158.106 754.639 155.483 757.953 153.608C761.268 151.733 765.179 150.795 769.686 150.795C772.982 150.795 775.964 151.307 778.635 152.33C781.305 153.352 783.588 154.839 785.482 156.79C787.375 158.722 788.834 161.07 789.857 163.835C790.879 166.6 791.391 169.716 791.391 173.182V176.818H752.413V168.182H776.959C776.94 166.932 776.618 165.833 775.993 164.886C775.387 163.92 774.563 163.172 773.521 162.642C772.499 162.093 771.334 161.818 770.027 161.818C768.758 161.818 767.593 162.093 766.533 162.642C765.472 163.172 764.62 163.911 763.976 164.858C763.351 165.805 763.019 166.913 762.982 168.182V177.5C762.982 178.902 763.275 180.152 763.862 181.25C764.449 182.348 765.292 183.21 766.391 183.835C767.489 184.46 768.815 184.773 770.368 184.773C771.447 184.773 772.432 184.621 773.322 184.318C774.232 184.015 775.008 183.58 775.652 183.011C776.296 182.424 776.769 181.723 777.072 180.909H791.391C790.898 183.939 789.733 186.572 787.896 188.807C786.059 191.023 783.625 192.746 780.595 193.977C777.584 195.189 774.061 195.795 770.027 195.795ZM840.673 151.364L826.014 195H807.832L793.173 151.364H809.651L816.696 180.227H817.151L824.196 151.364H840.673ZM889.707 160V171.818H862.435V160H889.707ZM969.068 158.636H953.045C952.932 157.311 952.629 156.108 952.136 155.028C951.663 153.949 951 153.021 950.148 152.244C949.314 151.449 948.301 150.843 947.108 150.426C945.915 149.991 944.561 149.773 943.045 149.773C940.394 149.773 938.15 150.417 936.312 151.705C934.494 152.992 933.112 154.839 932.165 157.244C931.237 159.65 930.773 162.538 930.773 165.909C930.773 169.47 931.246 172.453 932.193 174.858C933.159 177.244 934.551 179.044 936.369 180.256C938.188 181.449 940.375 182.045 942.932 182.045C944.39 182.045 945.697 181.866 946.852 181.506C948.008 181.127 949.011 180.587 949.864 179.886C950.716 179.186 951.407 178.343 951.938 177.358C952.487 176.354 952.856 175.227 953.045 173.977L969.068 174.091C968.879 176.553 968.188 179.062 966.994 181.619C965.801 184.157 964.106 186.506 961.909 188.665C959.731 190.805 957.032 192.528 953.812 193.835C950.593 195.142 946.852 195.795 942.591 195.795C937.25 195.795 932.458 194.65 928.216 192.358C923.992 190.066 920.65 186.695 918.188 182.244C915.744 177.794 914.523 172.348 914.523 165.909C914.523 159.432 915.773 153.977 918.273 149.545C920.773 145.095 924.144 141.733 928.386 139.46C932.629 137.169 937.364 136.023 942.591 136.023C946.265 136.023 949.646 136.525 952.733 137.528C955.82 138.532 958.528 140 960.858 141.932C963.188 143.845 965.063 146.203 966.483 149.006C967.903 151.809 968.765 155.019 969.068 158.636ZM988.621 195.682C985.837 195.682 983.375 195.227 981.234 194.318C979.113 193.39 977.446 191.989 976.234 190.114C975.022 188.239 974.416 185.852 974.416 182.955C974.416 180.568 974.823 178.532 975.638 176.847C976.452 175.142 977.589 173.75 979.047 172.67C980.505 171.591 982.2 170.767 984.132 170.199C986.083 169.631 988.185 169.261 990.439 169.091C992.882 168.902 994.842 168.674 996.32 168.409C997.816 168.125 998.895 167.737 999.558 167.244C1000.22 166.733 1000.55 166.061 1000.55 165.227V165.114C1000.55 163.977 1000.12 163.106 999.246 162.5C998.375 161.894 997.257 161.591 995.893 161.591C994.397 161.591 993.176 161.922 992.229 162.585C991.301 163.229 990.742 164.223 990.553 165.568H976.121C976.31 162.917 977.153 160.473 978.649 158.239C980.164 155.985 982.371 154.186 985.268 152.841C988.166 151.477 991.784 150.795 996.121 150.795C999.246 150.795 1002.05 151.165 1004.53 151.903C1007.01 152.623 1009.12 153.636 1010.87 154.943C1012.61 156.231 1013.93 157.746 1014.84 159.489C1015.77 161.212 1016.23 163.087 1016.23 165.114V195H1001.58V188.864H1001.23C1000.36 190.492 999.303 191.809 998.053 192.812C996.821 193.816 995.411 194.545 993.82 195C992.248 195.455 990.515 195.682 988.621 195.682ZM993.734 185.795C994.928 185.795 996.045 185.549 997.087 185.057C998.147 184.564 999.009 183.854 999.672 182.926C1000.33 181.998 1000.67 180.871 1000.67 179.545V175.909C1000.25 176.08 999.804 176.241 999.331 176.392C998.876 176.544 998.384 176.686 997.854 176.818C997.342 176.951 996.793 177.074 996.206 177.188C995.638 177.301 995.041 177.405 994.416 177.5C993.204 177.689 992.21 178.002 991.433 178.438C990.676 178.854 990.107 179.375 989.729 180C989.369 180.606 989.189 181.288 989.189 182.045C989.189 183.258 989.615 184.186 990.467 184.83C991.32 185.473 992.409 185.795 993.734 185.795ZM1038.5 175L1050.66 151.364H1065.43V195H1050.66V171.25L1038.5 195H1023.73V151.364H1038.5V175ZM1050.2 135.682H1060.09C1060.07 139.375 1058.66 142.33 1055.86 144.545C1053.05 146.742 1049.28 147.841 1044.52 147.841C1039.73 147.841 1035.93 146.742 1033.13 144.545C1030.33 142.33 1028.94 139.375 1028.95 135.682H1038.73C1038.71 136.875 1039.13 137.973 1040.01 138.977C1040.9 139.962 1042.4 140.455 1044.52 140.455C1046.55 140.455 1048 139.972 1048.87 139.006C1049.74 138.04 1050.19 136.932 1050.2 135.682ZM1070.08 163.068V151.364H1112.36V163.068H1098.49V195H1083.72V163.068H1070.08ZM377.673 308.364V248.364H393.241V255.977H393.582C394.15 254.5 394.983 253.146 396.082 251.915C397.18 250.665 398.544 249.67 400.173 248.932C401.801 248.174 403.695 247.795 405.854 247.795C408.733 247.795 411.47 248.562 414.065 250.097C416.678 251.631 418.799 254.045 420.428 257.341C422.076 260.636 422.9 264.917 422.9 270.182C422.9 275.22 422.114 279.396 420.542 282.71C418.989 286.025 416.906 288.496 414.292 290.125C411.697 291.754 408.847 292.568 405.741 292.568C403.695 292.568 401.868 292.237 400.258 291.574C398.667 290.892 397.303 289.973 396.167 288.818C395.049 287.644 394.188 286.318 393.582 284.841H393.354V308.364H377.673ZM393.013 270.182C393.013 272.303 393.288 274.14 393.837 275.693C394.406 277.227 395.201 278.42 396.224 279.273C397.265 280.106 398.506 280.523 399.945 280.523C401.385 280.523 402.606 280.116 403.61 279.301C404.633 278.468 405.409 277.284 405.94 275.75C406.489 274.197 406.763 272.341 406.763 270.182C406.763 268.023 406.489 266.176 405.94 264.642C405.409 263.089 404.633 261.905 403.61 261.091C402.606 260.258 401.385 259.841 399.945 259.841C398.506 259.841 397.265 260.258 396.224 261.091C395.201 261.905 394.406 263.089 393.837 264.642C393.288 266.176 393.013 268.023 393.013 270.182ZM441.629 292.682C438.844 292.682 436.382 292.227 434.242 291.318C432.121 290.39 430.454 288.989 429.242 287.114C428.03 285.239 427.424 282.852 427.424 279.955C427.424 277.568 427.831 275.532 428.646 273.847C429.46 272.142 430.596 270.75 432.055 269.67C433.513 268.591 435.208 267.767 437.14 267.199C439.091 266.631 441.193 266.261 443.447 266.091C445.89 265.902 447.85 265.674 449.327 265.409C450.824 265.125 451.903 264.737 452.566 264.244C453.229 263.733 453.56 263.061 453.56 262.227V262.114C453.56 260.977 453.125 260.106 452.254 259.5C451.382 258.894 450.265 258.591 448.901 258.591C447.405 258.591 446.183 258.922 445.237 259.585C444.308 260.229 443.75 261.223 443.56 262.568H429.129C429.318 259.917 430.161 257.473 431.657 255.239C433.172 252.985 435.379 251.186 438.276 249.841C441.174 248.477 444.791 247.795 449.129 247.795C452.254 247.795 455.057 248.165 457.538 248.903C460.019 249.623 462.13 250.636 463.873 251.943C465.615 253.231 466.941 254.746 467.85 256.489C468.778 258.212 469.242 260.087 469.242 262.114V292H454.583V285.864H454.242C453.371 287.492 452.31 288.809 451.06 289.812C449.829 290.816 448.418 291.545 446.827 292C445.255 292.455 443.522 292.682 441.629 292.682ZM446.742 282.795C447.935 282.795 449.053 282.549 450.094 282.057C451.155 281.564 452.017 280.854 452.68 279.926C453.343 278.998 453.674 277.871 453.674 276.545V272.909C453.257 273.08 452.812 273.241 452.339 273.392C451.884 273.544 451.392 273.686 450.862 273.818C450.35 273.951 449.801 274.074 449.214 274.188C448.646 274.301 448.049 274.405 447.424 274.5C446.212 274.689 445.218 275.002 444.441 275.438C443.683 275.854 443.115 276.375 442.737 277C442.377 277.606 442.197 278.288 442.197 279.045C442.197 280.258 442.623 281.186 443.475 281.83C444.327 282.473 445.416 282.795 446.742 282.795ZM474.803 278.818H489.576C489.576 279.917 490.049 280.816 490.996 281.517C491.962 282.218 493.193 282.568 494.69 282.568C496.186 282.568 497.407 282.18 498.354 281.403C499.32 280.608 499.803 279.595 499.803 278.364C499.803 277.587 499.604 276.905 499.207 276.318C498.809 275.712 498.26 275.239 497.559 274.898C496.858 274.557 496.053 274.386 495.144 274.386H489.69V265.182H495.144C496.489 265.182 497.578 264.86 498.411 264.216C499.263 263.572 499.69 262.758 499.69 261.773C499.69 260.636 499.273 259.708 498.44 258.989C497.606 258.269 496.546 257.909 495.258 257.909C493.97 257.909 492.909 258.203 492.076 258.79C491.243 259.377 490.826 260.144 490.826 261.091H476.053C476.053 258.288 476.887 255.902 478.553 253.932C480.22 251.943 482.455 250.428 485.258 249.386C488.061 248.326 491.167 247.795 494.576 247.795C498.478 247.795 501.83 248.269 504.633 249.216C507.436 250.163 509.585 251.555 511.082 253.392C512.578 255.229 513.326 257.492 513.326 260.182C513.326 262.398 512.521 264.301 510.911 265.892C509.301 267.464 506.924 268.591 503.781 269.273V269.727C505.656 269.822 507.398 270.267 509.008 271.062C510.637 271.858 511.953 272.994 512.957 274.472C513.96 275.949 514.462 277.777 514.462 279.955C514.462 282.682 513.61 285.002 511.906 286.915C510.22 288.828 507.89 290.286 504.917 291.29C501.943 292.294 498.534 292.795 494.69 292.795C490.94 292.795 487.587 292.294 484.633 291.29C481.678 290.267 479.33 288.723 477.587 286.659C475.845 284.576 474.917 281.962 474.803 278.818ZM520.563 308.364V248.364H536.131V255.977H536.472C537.04 254.5 537.874 253.146 538.972 251.915C540.071 250.665 541.434 249.67 543.063 248.932C544.692 248.174 546.586 247.795 548.745 247.795C551.624 247.795 554.361 248.562 556.955 250.097C559.569 251.631 561.69 254.045 563.319 257.341C564.967 260.636 565.79 264.917 565.79 270.182C565.79 275.22 565.004 279.396 563.433 282.71C561.879 286.025 559.796 288.496 557.183 290.125C554.588 291.754 551.737 292.568 548.631 292.568C546.586 292.568 544.758 292.237 543.148 291.574C541.558 290.892 540.194 289.973 539.058 288.818C537.94 287.644 537.078 286.318 536.472 284.841H536.245V308.364H520.563ZM535.904 270.182C535.904 272.303 536.179 274.14 536.728 275.693C537.296 277.227 538.092 278.42 539.114 279.273C540.156 280.106 541.397 280.523 542.836 280.523C544.275 280.523 545.497 280.116 546.501 279.301C547.523 278.468 548.3 277.284 548.83 275.75C549.379 274.197 549.654 272.341 549.654 270.182C549.654 268.023 549.379 266.176 548.83 264.642C548.3 263.089 547.523 261.905 546.501 261.091C545.497 260.258 544.275 259.841 542.836 259.841C541.397 259.841 540.156 260.258 539.114 261.091C538.092 261.905 537.296 263.089 536.728 264.642C536.179 266.176 535.904 268.023 535.904 270.182ZM584.519 292.682C581.735 292.682 579.273 292.227 577.133 291.318C575.012 290.39 573.345 288.989 572.133 287.114C570.921 285.239 570.315 282.852 570.315 279.955C570.315 277.568 570.722 275.532 571.536 273.847C572.351 272.142 573.487 270.75 574.945 269.67C576.404 268.591 578.099 267.767 580.031 267.199C581.981 266.631 584.084 266.261 586.337 266.091C588.781 265.902 590.741 265.674 592.218 265.409C593.714 265.125 594.794 264.737 595.457 264.244C596.12 263.733 596.451 263.061 596.451 262.227V262.114C596.451 260.977 596.015 260.106 595.144 259.5C594.273 258.894 593.156 258.591 591.792 258.591C590.296 258.591 589.074 258.922 588.127 259.585C587.199 260.229 586.64 261.223 586.451 262.568H572.019C572.209 259.917 573.051 257.473 574.548 255.239C576.063 252.985 578.269 251.186 581.167 249.841C584.065 248.477 587.682 247.795 592.019 247.795C595.144 247.795 597.947 248.165 600.428 248.903C602.909 249.623 605.021 250.636 606.763 251.943C608.506 253.231 609.832 254.746 610.741 256.489C611.669 258.212 612.133 260.087 612.133 262.114V292H597.474V285.864H597.133C596.262 287.492 595.201 288.809 593.951 289.812C592.72 290.816 591.309 291.545 589.718 292C588.146 292.455 586.413 292.682 584.519 292.682ZM589.633 282.795C590.826 282.795 591.943 282.549 592.985 282.057C594.046 281.564 594.907 280.854 595.57 279.926C596.233 278.998 596.565 277.871 596.565 276.545V272.909C596.148 273.08 595.703 273.241 595.229 273.392C594.775 273.544 594.282 273.686 593.752 273.818C593.241 273.951 592.692 274.074 592.104 274.188C591.536 274.301 590.94 274.405 590.315 274.5C589.103 274.689 588.108 275.002 587.332 275.438C586.574 275.854 586.006 276.375 585.627 277C585.267 277.606 585.087 278.288 585.087 279.045C585.087 280.258 585.513 281.186 586.366 281.83C587.218 282.473 588.307 282.795 589.633 282.795ZM658.489 232.568L662.353 243.023C661.179 243.856 659.929 244.509 658.603 244.983C657.277 245.437 655.62 245.759 653.631 245.949C651.643 246.119 649.058 246.205 645.876 246.205C642.277 246.205 639.379 246.621 637.183 247.455C634.986 248.288 633.328 249.699 632.211 251.688C631.094 253.676 630.345 256.394 629.967 259.841H630.308C631.501 257.227 633.205 255.134 635.421 253.562C637.656 251.991 640.686 251.205 644.512 251.205C648.433 251.205 651.813 252.038 654.654 253.705C657.495 255.352 659.673 257.672 661.188 260.665C662.722 263.657 663.489 267.17 663.489 271.205C663.489 275.561 662.59 279.358 660.79 282.597C658.991 285.835 656.406 288.345 653.035 290.125C649.664 291.905 645.611 292.795 640.876 292.795C636.141 292.795 632.088 291.867 628.717 290.011C625.345 288.155 622.76 285.428 620.961 281.83C619.162 278.231 618.262 273.818 618.262 268.591V265.75C618.262 254.689 620.563 246.602 625.165 241.489C629.787 236.375 636.501 233.818 645.308 233.818C647.353 233.818 649.209 233.818 650.876 233.818C652.561 233.818 654.039 233.733 655.308 233.562C656.595 233.392 657.656 233.061 658.489 232.568ZM640.989 281.205C642.315 281.205 643.461 280.845 644.427 280.125C645.393 279.386 646.141 278.326 646.671 276.943C647.201 275.542 647.467 273.856 647.467 271.886C647.467 269.879 647.201 268.174 646.671 266.773C646.141 265.371 645.393 264.301 644.427 263.562C643.461 262.824 642.315 262.455 640.989 262.455C639.948 262.455 639.01 262.663 638.177 263.08C637.344 263.496 636.633 264.112 636.046 264.926C635.478 265.722 635.042 266.706 634.739 267.881C634.436 269.036 634.285 270.371 634.285 271.886C634.285 274.841 634.872 277.133 636.046 278.761C637.239 280.39 638.887 281.205 640.989 281.205ZM682.254 292.682C679.469 292.682 677.007 292.227 674.867 291.318C672.746 290.39 671.079 288.989 669.867 287.114C668.655 285.239 668.049 282.852 668.049 279.955C668.049 277.568 668.456 275.532 669.271 273.847C670.085 272.142 671.221 270.75 672.68 269.67C674.138 268.591 675.833 267.767 677.765 267.199C679.716 266.631 681.818 266.261 684.072 266.091C686.515 265.902 688.475 265.674 689.952 265.409C691.449 265.125 692.528 264.737 693.191 264.244C693.854 263.733 694.185 263.061 694.185 262.227V262.114C694.185 260.977 693.75 260.106 692.879 259.5C692.007 258.894 690.89 258.591 689.526 258.591C688.03 258.591 686.808 258.922 685.862 259.585C684.933 260.229 684.375 261.223 684.185 262.568H669.754C669.943 259.917 670.786 257.473 672.282 255.239C673.797 252.985 676.004 251.186 678.901 249.841C681.799 248.477 685.416 247.795 689.754 247.795C692.879 247.795 695.682 248.165 698.163 248.903C700.644 249.623 702.755 250.636 704.498 251.943C706.24 253.231 707.566 254.746 708.475 256.489C709.403 258.212 709.867 260.087 709.867 262.114V292H695.208V285.864H694.867C693.996 287.492 692.935 288.809 691.685 289.812C690.454 290.816 689.043 291.545 687.452 292C685.88 292.455 684.147 292.682 682.254 292.682ZM687.367 282.795C688.56 282.795 689.678 282.549 690.719 282.057C691.78 281.564 692.642 280.854 693.305 279.926C693.968 278.998 694.299 277.871 694.299 276.545V272.909C693.882 273.08 693.437 273.241 692.964 273.392C692.509 273.544 692.017 273.686 691.487 273.818C690.975 273.951 690.426 274.074 689.839 274.188C689.271 274.301 688.674 274.405 688.049 274.5C686.837 274.689 685.843 275.002 685.066 275.438C684.308 275.854 683.74 276.375 683.362 277C683.002 277.606 682.822 278.288 682.822 279.045C682.822 280.258 683.248 281.186 684.1 281.83C684.952 282.473 686.041 282.795 687.367 282.795ZM714.029 260.068V248.364H756.302V260.068H742.438V292H727.665V260.068H714.029ZM770.876 260.182H784.285C790.516 260.182 795.421 261.621 799.001 264.5C802.58 267.36 804.379 271.299 804.398 276.318C804.379 279.557 803.556 282.35 801.927 284.699C800.317 287.047 798.006 288.856 794.995 290.125C792.003 291.375 788.433 292 784.285 292H762.126V248.364H776.898V280.295H784.285C785.895 280.295 787.22 279.917 788.262 279.159C789.304 278.383 789.834 277.398 789.853 276.205C789.834 274.936 789.304 273.903 788.262 273.108C787.22 272.294 785.895 271.886 784.285 271.886H770.876V260.182ZM807.58 292V248.364H823.262V292H807.58ZM831.188 292V248.364H850.279C856.131 248.364 860.734 249.358 864.086 251.347C867.457 253.335 869.143 256.318 869.143 260.295C869.143 262.455 868.196 264.367 866.302 266.034C864.427 267.701 861.7 268.818 858.12 269.386C861.415 269.538 864.086 270.144 866.131 271.205C868.196 272.246 869.701 273.553 870.648 275.125C871.614 276.678 872.097 278.288 872.097 279.955C872.097 282.606 871.378 284.831 869.938 286.631C868.499 288.411 866.378 289.756 863.575 290.665C860.772 291.555 857.325 292 853.234 292H831.188ZM845.734 280.977H853.234C854.503 280.977 855.497 280.674 856.217 280.068C856.955 279.462 857.325 278.629 857.325 277.568C857.325 276.47 856.955 275.608 856.217 274.983C855.497 274.358 854.503 274.045 853.234 274.045H845.734V280.977ZM845.734 266.091H850.734C851.548 266.091 852.239 265.968 852.808 265.722C853.376 265.456 853.811 265.087 854.114 264.614C854.436 264.14 854.597 263.572 854.597 262.909C854.597 261.905 854.209 261.129 853.433 260.58C852.675 260.011 851.624 259.727 850.279 259.727H845.734V266.091ZM890.3 292.682C887.516 292.682 885.054 292.227 882.914 291.318C880.793 290.39 879.126 288.989 877.914 287.114C876.702 285.239 876.096 282.852 876.096 279.955C876.096 277.568 876.503 275.532 877.317 273.847C878.132 272.142 879.268 270.75 880.727 269.67C882.185 268.591 883.88 267.767 885.812 267.199C887.763 266.631 889.865 266.261 892.119 266.091C894.562 265.902 896.522 265.674 897.999 265.409C899.496 265.125 900.575 264.737 901.238 264.244C901.901 263.733 902.232 263.061 902.232 262.227V262.114C902.232 260.977 901.797 260.106 900.925 259.5C900.054 258.894 898.937 258.591 897.573 258.591C896.077 258.591 894.855 258.922 893.908 259.585C892.98 260.229 892.422 261.223 892.232 262.568H877.8C877.99 259.917 878.833 257.473 880.329 255.239C881.844 252.985 884.05 251.186 886.948 249.841C889.846 248.477 893.463 247.795 897.8 247.795C900.925 247.795 903.728 248.165 906.21 248.903C908.691 249.623 910.802 250.636 912.545 251.943C914.287 253.231 915.613 254.746 916.522 256.489C917.45 258.212 917.914 260.087 917.914 262.114V292H903.255V285.864H902.914C902.043 287.492 900.982 288.809 899.732 289.812C898.501 290.816 897.09 291.545 895.499 292C893.927 292.455 892.194 292.682 890.3 292.682ZM895.414 282.795C896.607 282.795 897.725 282.549 898.766 282.057C899.827 281.564 900.689 280.854 901.352 279.926C902.014 278.998 902.346 277.871 902.346 276.545V272.909C901.929 273.08 901.484 273.241 901.011 273.392C900.556 273.544 900.064 273.686 899.533 273.818C899.022 273.951 898.473 274.074 897.886 274.188C897.317 274.301 896.721 274.405 896.096 274.5C894.884 274.689 893.889 275.002 893.113 275.438C892.355 275.854 891.787 276.375 891.408 277C891.049 277.606 890.869 278.288 890.869 279.045C890.869 280.258 891.295 281.186 892.147 281.83C892.999 282.473 894.088 282.795 895.414 282.795ZM946.316 292.795C941.657 292.795 937.642 291.905 934.271 290.125C930.918 288.326 928.333 285.75 926.515 282.398C924.716 279.027 923.816 274.992 923.816 270.295C923.816 265.788 924.725 261.848 926.543 258.477C928.362 255.106 930.928 252.483 934.242 250.608C937.557 248.733 941.468 247.795 945.975 247.795C949.271 247.795 952.254 248.307 954.924 249.33C957.594 250.352 959.877 251.839 961.771 253.79C963.665 255.722 965.123 258.07 966.146 260.835C967.168 263.6 967.68 266.716 967.68 270.182V273.818H928.702V265.182H953.248C953.229 263.932 952.907 262.833 952.282 261.886C951.676 260.92 950.852 260.172 949.81 259.642C948.788 259.093 947.623 258.818 946.316 258.818C945.047 258.818 943.882 259.093 942.822 259.642C941.761 260.172 940.909 260.911 940.265 261.858C939.64 262.805 939.308 263.913 939.271 265.182V274.5C939.271 275.902 939.564 277.152 940.151 278.25C940.738 279.348 941.581 280.21 942.68 280.835C943.778 281.46 945.104 281.773 946.657 281.773C947.737 281.773 948.721 281.621 949.612 281.318C950.521 281.015 951.297 280.58 951.941 280.011C952.585 279.424 953.058 278.723 953.362 277.909H967.68C967.187 280.939 966.022 283.572 964.185 285.807C962.348 288.023 959.915 289.746 956.884 290.977C953.873 292.189 950.35 292.795 946.316 292.795ZM971.138 260.068V248.364H1013.41V260.068H999.548V292H984.775V260.068H971.138ZM1039.16 292.795C1034.43 292.795 1030.38 291.858 1027 289.983C1023.63 288.089 1021.05 285.456 1019.25 282.085C1017.45 278.695 1016.55 274.765 1016.55 270.295C1016.55 265.826 1017.45 261.905 1019.25 258.534C1021.05 255.144 1023.63 252.511 1027 250.636C1030.38 248.742 1034.43 247.795 1039.16 247.795C1043.44 247.795 1047.15 248.572 1050.27 250.125C1053.42 251.659 1055.85 253.837 1057.57 256.659C1059.3 259.462 1060.17 262.758 1060.19 266.545H1045.64C1045.43 264.254 1044.77 262.511 1043.65 261.318C1042.55 260.106 1041.13 259.5 1039.39 259.5C1038.03 259.5 1036.83 259.898 1035.81 260.693C1034.79 261.47 1033.99 262.653 1033.43 264.244C1032.86 265.816 1032.57 267.795 1032.57 270.182C1032.57 272.568 1032.86 274.557 1033.43 276.148C1033.99 277.72 1034.79 278.903 1035.81 279.699C1036.83 280.475 1038.03 280.864 1039.39 280.864C1040.55 280.864 1041.57 280.598 1042.46 280.068C1043.35 279.519 1044.07 278.723 1044.62 277.682C1045.19 276.621 1045.53 275.333 1045.64 273.818H1060.19C1060.13 277.663 1059.25 281.015 1057.54 283.875C1055.84 286.716 1053.43 288.913 1050.3 290.466C1047.19 292.019 1043.48 292.795 1039.16 292.795ZM1091.77 292V260.068H1085.86C1083.89 260.068 1082.44 260.523 1081.51 261.432C1080.59 262.341 1080.14 263.25 1080.18 264.159C1080.14 265.125 1080.62 266.034 1081.6 266.886C1082.58 267.72 1084.12 268.136 1086.2 268.136H1097.34V277.568H1086.2C1081.94 277.568 1078.25 276.972 1075.12 275.778C1072 274.585 1069.59 272.938 1067.91 270.835C1066.22 268.733 1065.39 266.318 1065.41 263.591C1065.39 260.636 1066.2 258.013 1067.85 255.722C1069.52 253.43 1071.88 251.631 1074.95 250.324C1078.04 249.017 1081.68 248.364 1085.86 248.364H1106.32V292H1091.77ZM1064.95 292L1076.88 268.591H1091.32L1079.38 292H1064.95ZM1132.03 233.818L1130.55 273.818H1117.59L1116.12 233.818H1132.03ZM1124.07 292.909C1121.87 292.909 1119.99 292.142 1118.42 290.608C1116.87 289.055 1116.1 287.17 1116.12 284.955C1116.1 282.795 1116.87 280.949 1118.42 279.415C1119.99 277.881 1121.87 277.114 1124.07 277.114C1126.16 277.114 1127.99 277.881 1129.58 279.415C1131.19 280.949 1132.01 282.795 1132.03 284.955C1132.01 286.432 1131.62 287.777 1130.86 288.989C1130.12 290.182 1129.16 291.138 1127.96 291.858C1126.77 292.559 1125.47 292.909 1124.07 292.909Z" fill="#FFB800"/>
</svg>
