<svg width="885" height="727" viewBox="0 0 885 727" fill="none" xmlns="http://www.w3.org/2000/svg">
<circle cx="521.5" cy="363.5" r="358.5" stroke="#00A558" stroke-width="10"/>
<circle cx="157.5" cy="363.5" r="157.5" fill="#00A558"/>
<path d="M151.02 333.74V390.8H159.21V414.92H151.47V398H107.28V414.92H99.54V390.8H104.49C106.65 387.08 108.69 382.91 110.61 378.29C112.59 373.67 114.33 368.84 115.83 363.8C117.33 358.7 118.56 353.6 119.52 348.5C120.48 343.4 121.08 338.48 121.32 333.74H151.02ZM128.43 341.03C128.19 344.51 127.59 348.44 126.63 352.82C125.73 357.2 124.56 361.7 123.12 366.32C121.74 370.88 120.18 375.29 118.44 379.55C116.76 383.81 114.96 387.56 113.04 390.8H143.01V341.03H128.43ZM205.867 398H169.957V333.74H205.867V340.85H178.057V360.92H204.247V367.94H178.057V390.89H205.867V398ZM257.946 348.77C257.946 353.15 256.566 356.63 253.806 359.21C251.046 361.73 247.356 363.35 242.736 364.07V364.43C248.136 365.15 252.246 366.83 255.066 369.47C257.886 372.11 259.296 375.56 259.296 379.82C259.296 383.6 258.336 386.93 256.416 389.81C254.496 392.63 251.616 394.85 247.776 396.47C243.936 398.09 239.136 398.9 233.376 398.9C229.896 398.9 226.566 398.63 223.386 398.09C220.266 397.61 217.356 396.71 214.656 395.39V388.01C216.516 388.91 218.496 389.69 220.596 390.35C222.756 390.95 224.916 391.43 227.076 391.79C229.236 392.09 231.306 392.24 233.286 392.24C239.046 392.24 243.396 391.16 246.336 389C249.336 386.84 250.836 383.78 250.836 379.82C250.836 375.74 249.096 372.77 245.616 370.91C242.136 369.05 237.276 368.12 231.036 368.12H221.856V361.37H230.586C234.846 361.37 238.356 360.89 241.116 359.93C243.936 358.97 246.036 357.62 247.416 355.88C248.856 354.08 249.576 351.98 249.576 349.58C249.576 346.34 248.376 343.85 245.976 342.11C243.576 340.37 240.456 339.5 236.616 339.5C232.596 339.5 229.236 340.01 226.536 341.03C223.896 342.05 221.316 343.37 218.796 344.99L214.926 339.5C216.606 338.24 218.526 337.13 220.686 336.17C222.906 335.15 225.366 334.34 228.066 333.74C230.766 333.14 233.646 332.84 236.706 332.84C241.326 332.84 245.196 333.53 248.316 334.91C251.496 336.29 253.896 338.18 255.516 340.58C257.136 342.92 257.946 345.65 257.946 348.77Z" fill="white"/>
<path d="M285.47 378.171V354.892H362.332V378.171H285.47Z" fill="white"/>
<path d="M314.47 378.171V354.892H391.332V378.171H314.47Z" fill="#00A558"/>
<path d="M341.47 378.171V354.892H418.332V378.171H341.47Z" fill="white"/>
<path d="M404.27 335.95C400.85 335.95 397.76 336.55 395 337.75C392.24 338.89 389.9 340.6 387.98 342.88C386.06 345.1 384.59 347.83 383.57 351.07C382.55 354.25 382.04 357.85 382.04 361.87C382.04 367.15 382.85 371.74 384.47 375.64C386.15 379.54 388.61 382.54 391.85 384.64C395.15 386.74 399.26 387.79 404.18 387.79C407 387.79 409.67 387.55 412.19 387.07C414.71 386.59 417.17 385.99 419.57 385.27V392.29C417.17 393.19 414.68 393.85 412.1 394.27C409.58 394.69 406.55 394.9 403.01 394.9C396.47 394.9 391.01 393.55 386.63 390.85C382.25 388.15 378.95 384.31 376.73 379.33C374.57 374.35 373.49 368.5 373.49 361.78C373.49 356.92 374.15 352.48 375.47 348.46C376.85 344.44 378.83 340.96 381.41 338.02C384.05 335.08 387.29 332.83 391.13 331.27C394.97 329.65 399.38 328.84 404.36 328.84C407.66 328.84 410.84 329.17 413.9 329.83C416.96 330.49 419.69 331.42 422.09 332.62L418.85 339.46C416.87 338.56 414.65 337.75 412.19 337.03C409.79 336.31 407.15 335.95 404.27 335.95ZM469.505 394H433.595V329.74H469.505V336.85H441.695V356.92H467.885V363.94H441.695V386.89H469.505V394ZM500.615 329.74C509.015 329.74 515.135 331.39 518.975 334.69C522.815 337.99 524.735 342.64 524.735 348.64C524.735 351.28 524.285 353.83 523.385 356.29C522.545 358.69 521.135 360.85 519.155 362.77C517.175 364.69 514.535 366.22 511.235 367.36C507.935 368.44 503.885 368.98 499.085 368.98H491.705V394H483.605V329.74H500.615ZM499.895 336.67H491.705V362.05H498.185C502.265 362.05 505.655 361.63 508.355 360.79C511.055 359.89 513.065 358.48 514.385 356.56C515.705 354.64 516.365 352.12 516.365 349C516.365 344.86 515.045 341.77 512.405 339.73C509.765 337.69 505.595 336.67 499.895 336.67ZM556.457 329.74C561.797 329.74 566.267 330.25 569.867 331.27C573.527 332.29 576.257 333.97 578.057 336.31C579.917 338.65 580.847 341.77 580.847 345.67C580.847 348.19 580.367 350.44 579.407 352.42C578.507 354.34 577.127 355.96 575.267 357.28C573.467 358.54 571.247 359.41 568.607 359.89V360.34C571.307 360.76 573.737 361.54 575.897 362.68C578.117 363.82 579.857 365.44 581.117 367.54C582.377 369.64 583.007 372.37 583.007 375.73C583.007 379.63 582.107 382.96 580.307 385.72C578.507 388.42 575.927 390.49 572.567 391.93C569.267 393.31 565.307 394 560.687 394H538.097V329.74H556.457ZM558.077 357.1C563.597 357.1 567.377 356.23 569.417 354.49C571.457 352.69 572.477 350.05 572.477 346.57C572.477 343.03 571.217 340.51 568.697 339.01C566.237 337.45 562.277 336.67 556.817 336.67H546.197V357.1H558.077ZM546.197 363.85V387.16H559.157C564.857 387.16 568.817 386.05 571.037 383.83C573.257 381.61 574.367 378.7 574.367 375.1C574.367 372.82 573.857 370.84 572.837 369.16C571.877 367.48 570.227 366.19 567.887 365.29C565.607 364.33 562.487 363.85 558.527 363.85H546.197ZM596.722 329.74H604.282V365.02C604.282 366.52 604.252 368.17 604.192 369.97C604.192 371.71 604.162 373.45 604.102 375.19C604.042 376.93 603.952 378.49 603.832 379.87C603.772 381.19 603.712 382.21 603.652 382.93H604.012L639.382 329.74H648.382V394H640.822V359.08C640.822 357.46 640.852 355.72 640.912 353.86C640.972 351.94 641.032 350.11 641.092 348.37C641.212 346.57 641.302 344.98 641.362 343.6C641.422 342.22 641.482 341.2 641.542 340.54H641.182L605.722 394H596.722V329.74ZM693.254 335.95C689.834 335.95 686.744 336.55 683.984 337.75C681.224 338.89 678.884 340.6 676.964 342.88C675.044 345.1 673.574 347.83 672.554 351.07C671.534 354.25 671.024 357.85 671.024 361.87C671.024 367.15 671.834 371.74 673.454 375.64C675.134 379.54 677.594 382.54 680.834 384.64C684.134 386.74 688.244 387.79 693.164 387.79C695.984 387.79 698.654 387.55 701.174 387.07C703.694 386.59 706.154 385.99 708.554 385.27V392.29C706.154 393.19 703.664 393.85 701.084 394.27C698.564 394.69 695.534 394.9 691.994 394.9C685.454 394.9 679.994 393.55 675.614 390.85C671.234 388.15 667.934 384.31 665.714 379.33C663.554 374.35 662.474 368.5 662.474 361.78C662.474 356.92 663.134 352.48 664.454 348.46C665.834 344.44 667.814 340.96 670.394 338.02C673.034 335.08 676.274 332.83 680.114 331.27C683.954 329.65 688.364 328.84 693.344 328.84C696.644 328.84 699.824 329.17 702.884 329.83C705.944 330.49 708.674 331.42 711.074 332.62L707.834 339.46C705.854 338.56 703.634 337.75 701.174 337.03C698.774 336.31 696.134 335.95 693.254 335.95Z" fill="#00A558"/>
<path d="M390.79 649V599.02H420.47V604.55H397.09V620.16H404.51C409.503 620.16 413.377 620.79 416.13 622.05C418.883 623.263 420.797 624.943 421.87 627.09C422.943 629.19 423.48 631.617 423.48 634.37C423.48 637.403 422.873 640.017 421.66 642.21C420.493 644.403 418.58 646.083 415.92 647.25C413.26 648.417 409.76 649 405.42 649H390.79ZM404.79 643.61C409.27 643.61 412.42 642.863 414.24 641.37C416.06 639.83 416.97 637.497 416.97 634.37C416.97 632.223 416.527 630.52 415.64 629.26C414.8 627.953 413.4 627.02 411.44 626.46C409.527 625.9 406.96 625.62 403.74 625.62H397.09V643.61H404.79ZM438.826 634.37C438.826 634.79 438.803 635.397 438.756 636.19C438.756 636.937 438.733 637.753 438.686 638.64C438.64 639.48 438.593 640.297 438.546 641.09C438.5 641.837 438.453 642.443 438.406 642.91L458.496 611.48H466.056V649H460.316V626.88C460.316 626.133 460.316 625.153 460.316 623.94C460.363 622.727 460.41 621.537 460.456 620.37C460.503 619.157 460.55 618.247 460.596 617.64L440.646 649H433.016V611.48H438.826V634.37ZM528.887 611.48V649H477.997V611.48H484.157V643.82H500.327V611.48H506.487V643.82H522.727V611.48H528.887ZM563.078 611.48H569.798L553.768 629.54L571.128 649H563.988L547.048 629.96V649H540.888V611.48H547.048V629.68L563.078 611.48ZM591.061 610.78C594.281 610.78 597.034 611.48 599.321 612.88C601.654 614.28 603.428 616.263 604.641 618.83C605.901 621.35 606.531 624.313 606.531 627.72V631.43H580.841C580.934 635.677 582.008 638.92 584.061 641.16C586.161 643.353 589.078 644.45 592.811 644.45C595.191 644.45 597.291 644.24 599.111 643.82C600.978 643.353 602.891 642.7 604.851 641.86V647.25C602.938 648.09 601.048 648.697 599.181 649.07C597.314 649.49 595.098 649.7 592.531 649.7C588.984 649.7 585.834 648.977 583.081 647.53C580.374 646.083 578.251 643.937 576.711 641.09C575.218 638.197 574.471 634.673 574.471 630.52C574.471 626.413 575.148 622.89 576.501 619.95C577.901 617.01 579.838 614.747 582.311 613.16C584.831 611.573 587.748 610.78 591.061 610.78ZM590.991 615.82C588.051 615.82 585.718 616.777 583.991 618.69C582.311 620.557 581.308 623.17 580.981 626.53H600.091C600.091 624.383 599.764 622.517 599.111 620.93C598.458 619.343 597.454 618.107 596.101 617.22C594.794 616.287 593.091 615.82 590.991 615.82ZM638.273 611.48H644.993L628.963 629.54L646.323 649H639.183L622.243 629.96V649H616.083V611.48H622.243V629.68L638.273 611.48Z" fill="#00A558"/>
</svg>
