<svg width="73" height="73" viewBox="0 0 43 73" fill="#00A558"
    xmlns="http://www.w3.org/2000/svg">
    <path d="M1.22093 33.6515L33.7069 1.16621C34.4582 0.414257 35.4612 0 36.5307 0C37.6002 0 38.6032 0.414257 39.3545 1.16621L41.7469 3.55798C43.3036 5.11649 43.3036 7.64951 41.7469 9.20564L14.4677 36.4849L41.7771 63.7944C42.5285 64.5463 42.9434 65.5487 42.9434 66.6176C42.9434 67.6877 42.5285 68.6901 41.7771 69.4426L39.3848 71.8338C38.6328 72.5857 37.6304 73 36.561 73C35.4915 73 34.4885 72.5857 33.7371 71.8338L1.22093 39.3188C0.467795 38.5645 0.0541326 37.5573 0.0565065 36.4866C0.0541326 35.4118 0.467795 34.4053 1.22093 33.6515Z" fill="#00A558"/>
</svg>
