<svg width="73" height="73" viewBox="0 0 73 73" fill="none"
	xmlns="http://www.w3.org/2000/svg">
	<path d="M55.9163 33.6515L24.1021 1.16621C23.3663 0.414257 22.3841 0 21.3367 0C20.2893 0 19.3071 0.414257 18.5713 1.16621L16.2284 3.55798C14.7038 5.11649 14.7038 7.64951 16.2284 9.20564L42.9435 36.4849L16.1987 63.7944C15.4629 64.5463 15.0566 65.5487 15.0566 66.6176C15.0566 67.6877 15.4629 68.6901 16.1987 69.4426L18.5416 71.8338C19.278 72.5857 20.2597 73 21.3071 73C22.3544 73 23.3367 72.5857 24.0725 71.8338L55.9163 39.3188C56.6539 38.5645 57.059 37.5573 57.0566 36.4866C57.059 35.4118 56.6539 34.4053 55.9163 33.6515Z" fill="#00A558"/>
</svg>
